{
  "source": "C:\\Users\\Peter\\Desktop\\stuff\\MIUN\\quantitative_research\\video_compression\\videos\\BVI-HD\\BVI-HD_CDVL_videos\\ORIG\\Boxing_1920x1080_30fps.mp4",
  "output": "C:\\Users\\Peter\\Desktop\\stuff\\MIUN\\quantitative_research\\video_compression\\compressed_videos\\BVI-HD\\h264\\4\\Boxing_1920x1080_30fps_h264.mp4",
  "codec": "h264",
  "ok": "Input #0, mov,mp4,m4a,3gp,3g2,mj2, from 'C:\\Users\\Peter\\Desktop\\stuff\\MIUN\\quantitative_research\\video_compression\\videos\\BVI-HD\\BVI-HD_CDVL_videos\\ORIG\\Boxing_1920x1080_30fps.mp4':\n  Metadata:\n    major_brand     : isom\n    minor_version   : 512\n    compatible_brands: isomiso2avc1mp41\n    encoder         : Lavf54.28.101\n  Duration: 00:00:05.00, start: 0.000000, bitrate: 238363 kb/s\n  Stream #0:0[0x1](und): Video: h264 (High 4:4:4 Predictive) (avc1 / 0x31637661), yuv420p(progressive), 1920x1080, 238359 kb/s, 30 fps, 30 tbr, 30 tbn (default)\n    Metadata:\n      handler_name    : VideoHandler\n      vendor_id       : [0][0][0][0]\n[out#0/mp4 @ 000001a7a9b2c4c0] Codec AVOption b:a (set bitrate (in bits/s)) has not been used for any stream. The most likely reason is either wrong type (e.g. a video option with no video streams) or that it is a private option of some decoder which was not actually used for any stream.\nStream mapping:\n  Stream #0:0 -> #0:0 (h264 (native) -> h264 (libx264))\nPress [q] to stop, [?] for help\n[libx264 @ 000001a7aa3dbb80] using cpu capabilities: MMX2 SSE2Fast SSSE3 SSE4.2 AVX FMA3 BMI2 AVX2\n[libx264 @ 000001a7aa3dbb80] profile High, level 5.0, 4:2:0, 8-bit\n[libx264 @ 000001a7aa3dbb80] 264 - core 165 r3222 b35605a - H.264/MPEG-4 AVC codec - Copyleft 2003-2025 - http://www.videolan.org/x264.html - options: cabac=1 ref=5 deblock=1:0:0 analyse=0x3:0x113 me=hex subme=8 psy=1 psy_rd=1.00:0.00 mixed_ref=1 me_range=16 chroma_me=1 trellis=2 8x8dct=1 cqm=0 deadzone=21,11 fast_pskip=1 chroma_qp_offset=-2 threads=18 lookahead_threads=3 sliced_threads=0 nr=0 decimate=1 interlaced=0 bluray_compat=0 constrained_intra=0 bframes=3 b_pyramid=2 b_adapt=1 b_bias=0 direct=3 weightb=1 open_gop=0 weightp=2 keyint=250 keyint_min=25 scenecut=40 intra_refresh=0 rc_lookahead=50 rc=cbr mbtree=1 bitrate=4000 ratetol=1.0 qcomp=0.60 qpmin=0 qpmax=69 qpstep=4 vbv_maxrate=4000 vbv_bufsize=4000 nal_hrd=none filler=0 ip_ratio=1.40 aq=1:1.00\nOutput #0, mp4, to 'C:\\Users\\Peter\\Desktop\\stuff\\MIUN\\quantitative_research\\video_compression\\compressed_videos\\BVI-HD\\h264\\4\\Boxing_1920x1080_30fps_h264.mp4':\n  Metadata:\n    major_brand     : isom\n    minor_version   : 512\n    compatible_brands: isomiso2avc1mp41\n    encoder         : Lavf62.3.100\n  Stream #0:0(und): Video: h264 (avc1 / 0x31637661), yuv420p(tv, progressive), 1920x1080, q=2-31, 4000 kb/s, 30 fps, 15360 tbn (default)\n    Metadata:\n      encoder         : Lavc62.11.100 libx264\n      handler_name    : VideoHandler\n      vendor_id       : [0][0][0][0]\n    Side data:\n      cpb: bitrate max/min/avg: 4000000/0/4000000 buffer size: 4000000 vbv_delay: N/A\nframe=    0 fps=0.0 q=0.0 size=       0KiB time=N/A bitrate=N/A speed=N/A elapsed=0:00:00.53    \nframe=    0 fps=0.0 q=0.0 size=       0KiB time=N/A bitrate=N/A speed=N/A elapsed=0:00:01.20    \nframe=    0 fps=0.0 q=0.0 size=       0KiB time=N/A bitrate=N/A speed=N/A elapsed=0:00:01.76    \nframe=    7 fps=3.1 q=36.0 size=       0KiB time=00:00:00.13 bitrate=   2.9kbits/s speed=0.0584x elapsed=0:00:02.28    \nframe=   25 fps=8.7 q=31.0 size=     256KiB time=00:00:00.76 bitrate=2735.9kbits/s speed=0.266x elapsed=0:00:02.87    \nframe=   45 fps= 13 q=32.0 size=     512KiB time=00:00:01.33 bitrate=3146.0kbits/s speed=0.39x elapsed=0:00:03.41    \nframe=   60 fps= 15 q=32.0 size=     512KiB time=00:00:01.83 bitrate=2288.0kbits/s speed=0.453x elapsed=0:00:04.04    \nframe=   81 fps= 18 q=32.0 size=    1024KiB time=00:00:02.60 bitrate=3226.5kbits/s speed=0.566x elapsed=0:00:04.59    \nframe=   99 fps= 19 q=32.0 size=    1280KiB time=00:00:03.23 bitrate=3243.1kbits/s speed=0.63x elapsed=0:00:05.13    \nframe=  119 fps= 21 q=31.0 size=    1536KiB time=00:00:03.90 bitrate=3226.5kbits/s speed=0.69x elapsed=0:00:05.65    \nframe=  139 fps= 22 q=-1.0 size=    1792KiB time=00:00:04.50 bitrate=3262.3kbits/s speed=0.728x elapsed=0:00:06.18    \n[mp4 @ 000001a7aa5e4a00] Starting second pass: moving the moov atom to the beginning of the file\n[out#0/mp4 @ 000001a7a9b2c4c0] video:2185KiB audio:0KiB subtitle:0KiB other streams:0KiB global headers:0KiB muxing overhead: 0.117756%\nframe=  150 fps= 23 q=-1.0 Lsize=    2188KiB time=00:00:04.93 bitrate=3632.9kbits/s speed=0.762x elapsed=0:00:06.47    \n[libx264 @ 000001a7aa3dbb80] frame I:1     Avg QP:29.83  size: 43969\n[libx264 @ 000001a7aa3dbb80] frame P:40    Avg QP:29.75  size: 23599\n[libx264 @ 000001a7aa3dbb80] frame B:109   Avg QP:32.12  size: 11459\n[libx264 @ 000001a7aa3dbb80] consecutive B-frames:  0.7%  2.7% 14.0% 82.7%\n[libx264 @ 000001a7aa3dbb80] mb I  I16..4: 39.6% 56.5%  3.9%\n[libx264 @ 000001a7aa3dbb80] mb P  I16..4:  8.3% 15.0%  1.1%  P16..4: 33.3%  4.6%  2.7%  0.0%  0.0%    skip:35.1%\n[libx264 @ 000001a7aa3dbb80] mb B  I16..4:  2.1%  5.6%  0.4%  B16..8: 29.7%  2.9%  0.3%  direct: 1.5%  skip:57.3%  L0:44.7% L1:53.0% BI: 2.2%\n[libx264 @ 000001a7aa3dbb80] 8x8 transform intra:64.7% inter:88.5%\n[libx264 @ 000001a7aa3dbb80] direct mvs  spatial:91.7% temporal:8.3%\n[libx264 @ 000001a7aa3dbb80] coded y,uvDC,uvAC intra: 38.6% 43.7% 8.3% inter: 7.0% 7.9% 0.1%\n[libx264 @ 000001a7aa3dbb80] i16 v,h,dc,p: 21% 19%  5% 56%\n[libx264 @ 000001a7aa3dbb80] i8 v,h,dc,ddl,ddr,vr,hd,vl,hu: 15% 10% 10%  9% 13% 12% 12% 11%  9%\n[libx264 @ 000001a7aa3dbb80] i4 v,h,dc,ddl,ddr,vr,hd,vl,hu: 16% 11% 12%  9% 15% 12% 11%  8%  7%\n[libx264 @ 000001a7aa3dbb80] i8c dc,h,v,p: 48% 22% 18% 12%\n[libx264 @ 000001a7aa3dbb80] Weighted P-Frames: Y:7.5% UV:7.5%\n[libx264 @ 000001a7aa3dbb80] ref P L0: 49.0% 15.0% 19.6%  7.7%  8.1%  0.6%\n[libx264 @ 000001a7aa3dbb80] ref B L0: 80.7% 12.1%  5.6%  1.7%\n[libx264 @ 000001a7aa3dbb80] ref B L1: 94.6%  5.4%\n[libx264 @ 000001a7aa3dbb80] kb/s:3579.06\n",
  "seconds": 6.940377473831177,
  "probe_out": {}
}